<svg width="32" height="32" viewBox="0 0 32 32" fill="none" xmlns="http://www.w3.org/2000/svg">
<path fill-rule="evenodd" clip-rule="evenodd" d="M16 32C13.8017 32 11.7283 31.5811 9.77986 30.7433C7.83137 29.9054 6.13271 28.7612 4.68384 27.3107C3.23497 25.8601 2.09212 24.1657 1.25527 22.2274C0.418419 20.2892 0 18.2071 0 15.9812C0 13.7804 0.418419 11.7108 1.25527 9.77257C2.09212 7.8343 3.23497 6.1399 4.68384 4.68933C6.13271 3.23875 7.83137 2.09457 9.77986 1.25674C11.7283 0.418906 13.8017 0 16 0C18.1983 0 20.2717 0.418906 22.2201 1.25674C24.1686 2.09457 25.8673 3.23875 27.3162 4.68933C28.765 6.1399 29.9079 7.8343 30.7447 9.77257C31.5816 11.7108 32 13.7804 32 15.9812C32 18.2071 31.5816 20.2892 30.7447 22.2274C29.9079 24.1657 28.765 25.8601 27.3162 27.3107C25.8673 28.7612 24.1686 29.9054 22.2201 30.7433C20.2717 31.5811 18.1983 32 16 32ZM16 3.18874C14.2264 3.18874 12.5652 3.52637 11.0164 4.20164C9.4676 4.87691 8.11242 5.78975 6.95082 6.94021C5.78922 8.09067 4.87744 9.44743 4.21546 11.0105C3.55347 12.5737 3.22248 14.2305 3.22248 15.9812C3.22248 17.7569 3.55347 19.4201 4.21546 20.9707C4.87744 22.5213 5.78922 23.8781 6.95082 25.041C8.11242 26.204 9.4676 27.1231 11.0164 27.7984C12.5652 28.4736 14.2264 28.8113 16 28.8113C17.7736 28.8113 19.4348 28.4736 20.9836 27.7984C22.5324 27.1231 23.8876 26.204 25.0492 25.041C26.2108 23.8781 27.1226 22.5213 27.7845 20.9707C28.4465 19.4201 28.7775 17.7569 28.7775 15.9812C28.7775 14.2305 28.4465 12.5737 27.7845 11.0105C27.1226 9.44743 26.2108 8.09067 25.0492 6.94021C23.8876 5.78975 22.5324 4.87691 20.9836 4.20164C19.4348 3.52637 17.7736 3.18874 16 3.18874ZM16.1874 24.7972C14.3138 24.7972 12.6401 24.272 11.1663 23.2216C9.69242 22.1712 8.64325 20.8331 8.01873 19.2075H24.356C23.7065 20.8331 22.6448 22.1712 21.171 23.2216C19.6971 24.272 18.0359 24.7972 16.1874 24.7972ZM10.4169 14.4056C9.74238 14.4056 9.17408 14.168 8.71194 13.6928C8.2498 13.2177 8.01873 12.6549 8.01873 12.0047C8.01873 11.3294 8.2498 10.7605 8.71194 10.2978C9.17408 9.83509 9.74238 9.60375 10.4169 9.60375C11.0664 9.60375 11.6284 9.83509 12.103 10.2978C12.5777 10.7605 12.815 11.3294 12.815 12.0047C12.815 12.6549 12.5777 13.2177 12.103 13.6928C11.6284 14.168 11.0664 14.4056 10.4169 14.4056ZM21.5831 14.4056C20.9336 14.4056 20.3716 14.168 19.897 13.6928C19.4223 13.2177 19.185 12.6549 19.185 12.0047C19.185 11.3294 19.4223 10.7605 19.897 10.2978C20.3716 9.83509 20.9336 9.60375 21.5831 9.60375C22.2576 9.60375 22.8259 9.83509 23.2881 10.2978C23.7502 10.7605 23.9813 11.3294 23.9813 12.0047C23.9813 12.6549 23.7502 13.2177 23.2881 13.6928C22.8259 14.168 22.2576 14.4056 21.5831 14.4056Z" fill="#4F5A68"/>
</svg>
