<svg width="33" height="32" viewBox="0 0 33 32" fill="none" xmlns="http://www.w3.org/2000/svg">
<path fill-rule="evenodd" clip-rule="evenodd" d="M16.0188 0C13.8179 0 11.7421 0.418906 9.79132 1.25674C7.84055 2.09457 6.1399 3.23875 4.68933 4.68933C3.23876 6.1399 2.09457 7.8343 1.25674 9.77257C0.418909 11.7108 0 13.7804 0 15.9812C0 18.2071 0.418909 20.2892 1.25674 22.2274C2.09457 24.1657 3.23876 25.8601 4.68933 27.3107C6.1399 28.7612 7.84055 29.9054 9.79132 30.7433C11.7421 31.5811 13.8179 32 16.0188 32C18.2196 32 20.2954 31.5811 22.2462 30.7433C24.197 29.9054 25.8976 28.7612 27.3482 27.3107C28.7988 25.8601 29.9429 24.1657 30.7808 22.2274C31.6186 20.2892 32.0375 18.2071 32.0375 15.9812C32.0375 13.7804 31.6186 11.7108 30.7808 9.77257C29.9429 7.8343 28.7988 6.1399 27.3482 4.68933C25.8976 3.23875 24.197 2.09457 22.2462 1.25674C20.2954 0.418906 18.2196 0 16.0188 0ZM16.0188 28.8113C14.2431 28.8113 12.5799 28.4736 11.0293 27.7984C9.4787 27.1231 8.12193 26.204 6.95897 25.041C5.79601 23.8781 4.88316 22.5213 4.2204 20.9707C3.55764 19.4201 3.22626 17.7569 3.22626 15.9812C3.22626 14.2305 3.55764 12.5737 4.2204 11.0105C4.88316 9.44743 5.79601 8.09067 6.95897 6.94021C8.12193 5.78975 9.4787 4.87691 11.0293 4.20164C12.5799 3.52637 14.2431 3.18874 16.0188 3.18874C17.7945 3.18874 19.4576 3.52637 21.0082 4.20164C22.5588 4.87691 23.9156 5.78975 25.0785 6.94021C26.2415 8.09067 27.1544 9.44743 27.8171 11.0105C28.4799 12.5737 28.8113 14.2305 28.8113 15.9812C28.8113 17.7569 28.4799 19.4201 27.8171 20.9707C27.1544 22.5213 26.2415 23.8781 25.0785 25.041C23.9156 26.204 22.5588 27.1231 21.0082 27.7984C19.4576 28.4736 17.7945 28.8113 16.0188 28.8113ZM16.0188 19.2075C14.018 19.2075 12.5049 19.7077 11.4795 20.7081C10.4541 21.7085 9.92888 22.2462 9.90387 22.3212C9.65377 22.6714 9.57249 23.0653 9.66003 23.5029C9.74756 23.9406 9.96639 24.2845 10.3165 24.5346C10.6917 24.7847 11.0981 24.866 11.5358 24.7784C11.9734 24.6909 12.3048 24.4596 12.5299 24.0844C12.5549 24.0844 12.855 23.803 13.4302 23.2403C14.0055 22.6776 14.8683 22.3962 16.0188 22.3962C17.1442 22.3962 18.0008 22.6714 18.5885 23.2216C19.1762 23.7718 19.4701 24.0594 19.4701 24.0844C19.6452 24.3095 19.8515 24.4846 20.0891 24.6096C20.3267 24.7347 20.5705 24.7972 20.8206 24.7972C20.9707 24.7972 21.1208 24.7722 21.2708 24.7222C21.4209 24.6721 21.5709 24.6096 21.721 24.5346C22.0711 24.2845 22.29 23.9406 22.3775 23.5029C22.465 23.0653 22.3837 22.6714 22.1336 22.3212C22.1086 22.2462 21.5834 21.7085 20.558 20.7081C19.5326 19.7077 18.0196 19.2075 16.0188 19.2075ZM12.83 12.0047C12.83 11.3294 12.5924 10.7605 12.1172 10.2978C11.642 9.83509 11.0793 9.60375 10.4291 9.60375C9.75381 9.60375 9.18484 9.83509 8.72216 10.2978C8.25948 10.7605 8.02814 11.3294 8.02814 12.0047C8.02814 12.6549 8.25948 13.2177 8.72216 13.6928C9.18484 14.168 9.75381 14.4056 10.4291 14.4056C11.0793 14.4056 11.642 14.168 12.1172 13.6928C12.5924 13.2177 12.83 12.6549 12.83 12.0047ZM24.0094 12.0047C24.0094 11.3294 23.778 10.7605 23.3154 10.2978C22.8527 9.83509 22.2837 9.60375 21.6084 9.60375C20.9582 9.60375 20.3955 9.83509 19.9203 10.2978C19.4451 10.7605 19.2075 11.3294 19.2075 12.0047C19.2075 12.6549 19.4451 13.2177 19.9203 13.6928C20.3955 14.168 20.9582 14.4056 21.6084 14.4056C22.2837 14.4056 22.8527 14.168 23.3154 13.6928C23.778 13.2177 24.0094 12.6549 24.0094 12.0047Z" fill="#4F5A68"/>
</svg>
